# xmcd CD database file
#
# Track frame offsets:
#        151
#        12681
#        25148
#        39624
#        51313
#        63880
#        78586
#        92329
#        109471
#        124606
#        138449
#        151474
#        164125
#        177650
#        188367
#
# Disc length: 2691 seconds
#
# Revision: 0
# Processed by: cddbd v1.5.2PL0 Copyright (c) Steve Scherf et al.
# Submitted via: CUERipper 2.1.4
#
DISCID=cd0a810f
DTITLE=Various Artist - Greatest Blues
DYEAR=2001
DGENRE=Blues
TTITLE0=Sonny Terry - Whoopin' the Blues
TTITLE1=Sonny Boy Williamson - New Early In The Morning
TTITLE2=Lowell Fulson - Three O'Clock Blues
TTITLE3=Muddy Waters - Little Anna Mae
TTITLE4=Memphis Slim - Old Taylor
TTITLE5=Tampa Red - Baby, take a Chance with me
TTITLE6=Roosevelt Sykes - Sunny Road
TTITLE7=Jimmy Witherspoon - Skidrow Blues
TTITLE8=Lonnie Johnson - He's A Jelly Roll Baker
TTITLE9=Big Joe Turner - Piney down blues
TTITLE10=Big Bill Broonzy - Just a Dream
TTITLE11=Big Joe Williams - Baby Please Don't Go
TTITLE12=Lead Belly - Good Morning Blues
TTITLE13=Robert Johnson - Love In Vain
TTITLE14=Washboard Sam - Dissatified blues
EXTD=
EXTT0=
EXTT1=
EXTT2=
EXTT3=
EXTT4=
EXTT5=
EXTT6=
EXTT7=
EXTT8=
EXTT9=
EXTT10=
EXTT11=
EXTT12=
EXTT13=
EXTT14=
PLAYORDER=
